<?xml version="1.0" encoding="utf-8"?>
<!-- Generator: Adobe Illustrator 21.0.0, SVG Export Plug-In . SVG Version: 6.00 Build 0)  -->
<svg version="1.1" id="Ebene_1" xmlns="http://www.w3.org/2000/svg" xmlns:xlink="http://www.w3.org/1999/xlink" x="0px" y="0px"
	 viewBox="0 0 97.4 97.4" style="enable-background:new 0 0 97.4 97.4;" xml:space="preserve">
<style type="text/css">
	.st0{fill:#E3696F;}
	.st1{opacity:0.2;fill:#060506;enable-background:new    ;}
	.st2{fill:#FFFFFF;}
</style>
<g>
	<circle class="st0" cx="48.7" cy="48.7" r="48.7"/>
	<path class="st1" d="M57.6,30L50,33l-1.2,25.3l-9.2,13.3l31.8,20.2C85,84.7,94.8,71.3,97,55.5L57.6,30z"/>
	<path class="st2" d="M71.9,66.2c0-4.4-0.7-7.8-1.7-10.5c0.4-1.3,0.6-2.8,0.4-4.6c-0.3-3.4-1.7-7.4-3.9-11.3
		c-3.8-6.6-9.1-11-13.2-11c-0.8,0-1.6,0.2-2.2,0.5c-5.7-4.9-11.2-6.5-14.3-4c-4.2,3.3-2.2,12.6,4.6,21.3l2.8,3.6
		c0.2,0.3,0.6,0.4,0.9,0.4c0.2,0,0.5-0.1,0.7-0.2c0.5-0.4,0.6-1.1,0.2-1.6l-1.7-2.2c0.2,0,0.3,0,0.5,0c1.7,0,3.1,1.4,3.1,3.1
		c0,1.7-1.4,3.1-3.1,3.1c-1.7,0-3.1-1.4-3.1-3.1c0-0.1,0-0.1,0-0.2l-1.4-1.8c-1.1-1.4-2.1-2.8-2.9-4.2l-4.9,2.9
		c-0.1,0.1-0.3,0.1-0.4,0.1c-0.3,0-0.5-0.1-0.7-0.4c-0.2-0.4-0.1-0.8,0.3-1.1l5-2.9c-0.4-0.8-0.8-1.6-1.1-2.4L30,43
		c-0.7,0-1.4,0.2-2,0.6c-3.8,2.2-3.3,10.1,1.2,17.9c3.7,6.3,8.7,10.6,12.7,10.6c0.8,0,1.6-0.2,2.2-0.6c0.6-0.3,1.1-0.8,1.5-1.5
		l18.7-10.8c0.5,2.2,0.8,4,0.8,6.9l0,0c0,0.9,0.7,1.6,1.6,1.6s1.6-0.7,1.6-1.6v5.2c0,1,0.8,1.8,1.8,1.8s1.8-0.8,1.8-1.8l0,0
		C71.9,71.3,71.9,66.2,71.9,66.2z M45.9,38.6l-5,2.9c-0.3-0.4-0.5-0.9-0.8-1.3l5-2.9c0.4-0.2,0.8-0.1,1.1,0.3
		C46.4,37.9,46.3,38.4,45.9,38.6z M49.1,32l-10.2,5.9c-2.3-5.1-2.4-9.3-0.5-10.7c2.1-1.7,6.7-0.1,11.2,3.8
		C49.4,31.2,49.3,31.6,49.1,32z M68.3,52L68.3,52h-8.8c0.8,0.8,1.7,1.5,2.6,2c0.4,0.3,0.6,0.8,0.3,1.2c-0.2,0.3-0.5,0.4-0.8,0.4
		c-0.2,0-0.3,0-0.5-0.1c-1.4-0.8-2.8-2-4.1-3.5l0,0c-1.2-1.3-2.3-2.9-3.3-4.6c-3.9-6.7-4.5-13.6-1.3-15.4c3.1-1.8,8.8,2.2,12.7,8.9
		C67.3,44.9,68.4,49,68.3,52z"/>
</g>
</svg>
